<svg width="172" height="48" viewBox="0 0 172 48" fill="none" xmlns="http://www.w3.org/2000/svg">
<g clip-path="url(#clip0_944_6443)">
<path d="M141.901 45.2991H135.144C134.698 45.2991 134.274 45.0624 134.066 44.6582C133.833 44.1961 133.917 43.6408 134.277 43.2782L138.979 38.5388H135.612C134.683 38.5388 133.934 37.782 133.934 36.8465H140.16C140.606 36.8465 141.03 37.0832 141.238 37.4874C141.473 37.9495 141.387 38.5048 141.026 38.8674L136.325 43.6068H140.224C141.154 43.6068 141.903 44.3636 141.903 45.2991H141.901ZM168.648 36.7218C167.68 36.7218 166.809 37.1436 166.214 37.8173C165.614 37.1424 164.741 36.7218 163.78 36.7218C161.982 36.7218 160.517 38.2706 160.517 40.0762V45.3004C161.446 45.3004 162.195 44.5437 162.195 43.6081V40.0586C162.195 39.1872 162.865 38.4494 163.724 38.4128C164.629 38.3763 165.38 39.1117 165.38 40.0183V43.6094C165.38 44.5449 166.129 45.3017 167.058 45.3017V40.0598C167.058 39.1885 167.728 38.4506 168.587 38.4141C169.492 38.3776 170.242 39.1129 170.242 40.0195V43.6106C170.242 44.5462 170.992 45.3029 171.921 45.3029V40.0787C171.916 38.2718 170.448 36.7243 168.65 36.7243V36.7206L168.648 36.7218ZM150.366 41.0734C150.366 43.4759 148.429 45.4263 146.047 45.4263C143.664 45.4263 141.728 43.4759 141.728 41.0734C141.728 38.671 143.669 36.7206 146.047 36.7206C148.424 36.7206 150.366 38.671 150.366 41.0734ZM148.688 41.0734C148.688 39.6078 147.502 38.4116 146.048 38.4116C144.594 38.4116 143.407 39.6065 143.407 41.0734C143.407 42.5403 144.594 43.7353 146.048 43.7353C147.502 43.7353 148.688 42.5403 148.688 41.0734ZM159.673 41.0734C159.673 43.4759 157.737 45.4263 155.354 45.4263C152.972 45.4263 151.035 43.4759 151.035 41.0734C151.035 38.671 152.977 36.7206 155.354 36.7206C157.732 36.7206 159.673 38.671 159.673 41.0734ZM157.996 41.0734C157.996 39.6078 156.81 38.4116 155.357 38.4116C153.904 38.4116 152.716 39.6065 152.716 41.0734C152.716 42.5403 153.902 43.7353 155.357 43.7353C156.811 43.7353 157.996 42.5403 157.996 41.0734Z" fill="white"/>
<path d="M116.117 41.1843C116.117 41.6905 116.177 42.1299 116.299 42.5051C116.42 42.869 116.583 43.1725 116.785 43.4155C116.988 43.6585 117.226 43.8398 117.499 43.962C117.773 44.0728 118.061 44.1294 118.364 44.1294C119.022 44.1294 119.553 43.8713 119.957 43.3551C120.361 42.8287 120.564 42.106 120.564 41.1855C120.564 40.2651 120.361 39.5461 119.957 39.0311C119.553 38.5149 119.022 38.2567 118.364 38.2567C118.061 38.2567 117.773 38.3172 117.499 38.4393C117.226 38.5501 116.988 38.7277 116.785 38.9707C116.583 39.2036 116.422 39.5071 116.299 39.8811C116.179 40.2449 116.117 40.6806 116.117 41.1868V41.1843ZM116.177 34.2489V38.2857C116.43 37.8601 116.764 37.5315 117.18 37.2998C117.604 37.0568 118.12 36.9359 118.727 36.9359C119.203 36.9359 119.653 37.0316 120.078 37.2242C120.503 37.4169 120.878 37.6952 121.201 38.0591C121.525 38.423 121.778 38.8687 121.961 39.395C122.153 39.9213 122.249 40.5182 122.249 41.1855C122.249 41.8529 122.153 42.4497 121.961 42.976C121.778 43.5024 121.525 43.9519 121.201 44.3271C120.878 44.691 120.504 44.9693 120.078 45.1619C119.654 45.3546 119.203 45.4503 118.727 45.4503C118.12 45.4503 117.604 45.3344 117.18 45.1015C116.765 44.8585 116.43 44.5248 116.177 44.1005V45.2538H114.6V34.2514H116.177V34.2489ZM123.259 47.9069V46.6477H123.881C124.094 46.6477 124.275 46.6377 124.427 46.6175C124.59 46.5974 124.731 46.547 124.852 46.4652C124.972 46.3846 125.085 46.2624 125.185 46.1013C125.286 45.9388 125.388 45.7122 125.489 45.4188L125.549 45.2362L122.605 37.087H124.35L126.324 43.1725L128.251 37.087H129.891L127.007 45.4339C126.835 45.9199 126.669 46.3191 126.506 46.6326C126.354 46.9461 126.167 47.1992 125.945 47.3919C125.732 47.5845 125.469 47.7155 125.155 47.786C124.852 47.8666 124.473 47.9069 124.017 47.9069H123.258H123.259Z" fill="white"/>
<path d="M0.577568 15.9606C0.258629 15.9606 0 15.7021 0 15.3832C0 15.0643 0.258629 14.8057 0.577568 14.8057C0.896508 14.8057 1.15504 15.0643 1.15504 15.3832C1.15504 15.7021 0.896508 15.9606 0.577568 15.9606Z" fill="white"/>
<path d="M2.06772 16.2369C1.74878 16.2369 1.49023 15.9783 1.49023 15.6594C1.49023 15.3405 1.74878 15.082 2.06772 15.082C2.38665 15.082 2.64519 15.3405 2.64519 15.6594C2.64519 15.9783 2.38665 16.2369 2.06772 16.2369Z" fill="white"/>
<path d="M3.55795 16.5219C3.23901 16.5219 2.98047 16.2634 2.98047 15.9443C2.98047 15.6254 3.23901 15.3668 3.55795 15.3668C3.87688 15.3668 4.13551 15.6254 4.13551 15.9443C4.13551 16.2634 3.87688 16.5219 3.55795 16.5219Z" fill="white"/>
<path d="M5.05403 16.7984C4.73509 16.7984 4.47656 16.5399 4.47656 16.2209C4.47656 15.902 4.73509 15.6435 5.05403 15.6435C5.37298 15.6435 5.63151 15.902 5.63151 16.2209C5.63151 16.5399 5.37298 16.7984 5.05403 16.7984Z" fill="white"/>
<path d="M8.0345 17.3672C7.71556 17.3672 7.45703 17.1085 7.45703 16.7896C7.45703 16.4706 7.71556 16.212 8.0345 16.212C8.35343 16.212 8.61197 16.4706 8.61197 16.7896C8.61197 17.1085 8.35343 17.3672 8.0345 17.3672Z" fill="white"/>
<path d="M9.53255 17.6429C9.21361 17.6429 8.95508 17.3844 8.95508 17.0655C8.95508 16.7464 9.21361 16.4879 9.53255 16.4879C9.85149 16.4879 10.1101 16.7464 10.1101 17.0655C10.1101 17.3844 9.85149 17.6429 9.53255 17.6429Z" fill="white"/>
<path d="M11.0228 17.9274C10.7039 17.9274 10.4453 17.6688 10.4453 17.3498C10.4453 17.0309 10.7039 16.7724 11.0228 16.7724C11.3417 16.7724 11.6004 17.0309 11.6004 17.3498C11.6004 17.6688 11.3417 17.9274 11.0228 17.9274Z" fill="white"/>
<path d="M2.83528 13.458C2.51634 13.458 2.25781 13.1995 2.25781 12.8804C2.25781 12.5615 2.51634 12.3029 2.83528 12.3029C3.15423 12.3029 3.41286 12.5615 3.41286 12.8804C3.41286 13.1995 3.15423 13.458 2.83528 13.458Z" fill="white"/>
<path d="M4.26107 13.9936C3.94212 13.9936 3.68359 13.7351 3.68359 13.4162C3.68359 13.0972 3.94212 12.8387 4.26107 12.8387C4.58001 12.8387 4.83855 13.0972 4.83855 13.4162C4.83855 13.7351 4.58001 13.9936 4.26107 13.9936Z" fill="white"/>
<path d="M5.67514 14.5301C5.3562 14.5301 5.09766 14.2715 5.09766 13.9525C5.09766 13.6336 5.3562 13.3751 5.67514 13.3751C5.99407 13.3751 6.25261 13.6336 6.25261 13.9525C6.25261 14.2715 5.99407 14.5301 5.67514 14.5301Z" fill="white"/>
<path fill-rule="evenodd" clip-rule="evenodd" d="M6.68763 14.9122C6.74335 14.9644 6.80881 15.0051 6.88025 15.032L11.1386 16.6258C11.2084 16.6557 11.2854 16.6723 11.3662 16.6723C11.6851 16.6723 11.9437 16.4138 11.9437 16.0949C11.9437 15.8529 11.7948 15.6456 11.5837 15.5598L11.5839 15.5594L7.2903 13.944C7.21886 13.9171 7.14283 13.9045 7.06652 13.907C6.99021 13.9094 6.9151 13.9269 6.84559 13.9584C6.77599 13.9898 6.71338 14.0347 6.66115 14.0903C6.60894 14.1461 6.5682 14.2116 6.54127 14.283C6.51432 14.3544 6.50173 14.4304 6.50421 14.5067C6.50661 14.583 6.52407 14.6582 6.55561 14.7277C6.58705 14.7972 6.63192 14.8599 6.68763 14.9122Z" fill="white"/>
<path d="M5.38021 11.6248C5.06128 11.6248 4.80273 11.3663 4.80273 11.0473C4.80273 10.7284 5.06128 10.4698 5.38021 10.4698C5.69915 10.4698 5.95778 10.7284 5.95778 11.0473C5.95778 11.3663 5.69915 11.6248 5.38021 11.6248Z" fill="white"/>
<path d="M6.68693 12.3962C6.368 12.3962 6.10938 12.1375 6.10938 11.8185C6.10938 11.4996 6.368 11.241 6.68693 11.241C7.00588 11.241 7.26442 11.4996 7.26442 11.8185C7.26442 12.1375 7.00588 12.3962 6.68693 12.3962Z" fill="white"/>
<path fill-rule="evenodd" clip-rule="evenodd" d="M7.54669 12.9379C7.5923 12.999 7.64968 13.0504 7.71532 13.0892L11.6068 15.4013C11.6963 15.4584 11.8027 15.4915 11.9169 15.4915C12.2358 15.4915 12.4944 15.233 12.4944 14.9141C12.4944 14.7123 12.391 14.5348 12.2344 14.4315L12.2349 14.4305L8.30953 12.0932C8.17705 12.0159 8.01964 11.9938 7.87098 12.0313C7.72231 12.0689 7.59433 12.1632 7.51444 12.2941C7.47509 12.3593 7.44906 12.4318 7.43784 12.5073C7.42672 12.5827 7.43058 12.6595 7.44925 12.7335C7.46791 12.8074 7.50101 12.8769 7.54669 12.9379Z" fill="white"/>
<path d="M5.74935 8.49512C5.4304 8.49512 5.17188 8.23657 5.17188 7.91765C5.17188 7.59872 5.4304 7.34018 5.74935 7.34018C6.06828 7.34018 6.32682 7.59872 6.32682 7.91765C6.32682 8.23657 6.06828 8.49512 5.74935 8.49512Z" fill="white"/>
<path d="M6.90364 9.48247C6.5847 9.48247 6.32617 9.22393 6.32617 8.90501C6.32617 8.58607 6.5847 8.32751 6.90364 8.32751C7.22257 8.32751 7.48112 8.58607 7.48112 8.90501C7.48112 9.22393 7.22257 9.48247 6.90364 9.48247Z" fill="white"/>
<path d="M8.05991 10.479C7.74096 10.479 7.48242 10.2204 7.48242 9.9015C7.48242 9.58258 7.74096 9.32407 8.05991 9.32407C8.37884 9.32407 8.63738 9.58258 8.63738 9.9015C8.63738 10.2204 8.37884 10.479 8.05991 10.479Z" fill="white"/>
<path fill-rule="evenodd" clip-rule="evenodd" d="M8.63061 10.9284C8.64238 11.0814 8.71445 11.2235 8.83104 11.3234L12.2414 14.2443C12.3467 14.3578 12.4972 14.4286 12.6643 14.4286C12.9832 14.4286 13.2418 14.1701 13.2418 13.8512C13.2418 13.6598 13.1488 13.4902 13.0053 13.385L9.5843 10.4446C9.46773 10.3447 9.3163 10.2952 9.16332 10.307C9.01023 10.3187 8.86818 10.3908 8.76825 10.5074C8.6684 10.6239 8.61885 10.7753 8.63061 10.9284Z" fill="white"/>
<path d="M6.84505 5.29822C6.52611 5.29822 6.26758 5.03968 6.26758 4.72075C6.26758 4.40182 6.52611 4.14328 6.84505 4.14328C7.16398 4.14328 7.42252 4.40182 7.42252 4.72075C7.42252 5.03968 7.16398 5.29822 6.84505 5.29822Z" fill="white"/>
<path d="M7.80803 6.46981C7.4891 6.46981 7.23047 6.2112 7.23047 5.89222C7.23047 5.57323 7.4891 5.31464 7.80803 5.31464C8.12697 5.31464 8.38551 5.57323 8.38551 5.89222C8.38551 6.2112 8.12697 6.46981 7.80803 6.46981Z" fill="white"/>
<path d="M8.77084 7.64179C8.4519 7.64179 8.19336 7.38325 8.19336 7.06432C8.19336 6.74539 8.4519 6.48685 8.77084 6.48685C9.08979 6.48685 9.3484 6.74539 9.3484 7.06432C9.3484 7.38325 9.08979 7.64179 8.77084 7.64179Z" fill="white"/>
<path d="M9.73372 8.82186C9.41479 8.82186 9.15625 8.56325 9.15625 8.24427C9.15625 7.92528 9.41479 7.66669 9.73372 7.66669C10.0527 7.66669 10.3112 7.92528 10.3112 8.24427C10.3112 8.56325 10.0527 8.82186 9.73372 8.82186Z" fill="white"/>
<path fill-rule="evenodd" clip-rule="evenodd" d="M10.1209 9.58402C10.143 9.65684 10.1793 9.72459 10.2277 9.78334L13.1031 13.2584C13.2066 13.4138 13.3834 13.5162 13.5841 13.5162C13.903 13.5162 14.1615 13.2576 14.1615 12.9386C14.1615 12.7851 14.1017 12.6456 14.004 12.5422L11.1232 9.04685C11.0748 8.98805 11.0154 8.93935 10.9482 8.90354C10.881 8.86771 10.8075 8.84548 10.7317 8.83809C10.6559 8.83071 10.5794 8.83833 10.5066 8.8605C10.4337 8.88267 10.366 8.91899 10.3072 8.96734C10.2484 9.0157 10.1997 9.07517 10.1639 9.14236C10.128 9.20954 10.1058 9.2831 10.0984 9.35886C10.0911 9.43471 10.0986 9.5112 10.1209 9.58402Z" fill="white"/>
<path d="M10.1868 4.83016C9.8679 4.83016 9.60938 4.57157 9.60938 4.25257C9.60938 3.93359 9.8679 3.67499 10.1868 3.67499C10.5058 3.67499 10.7643 3.93359 10.7643 4.25257C10.7643 4.57157 10.5058 4.83016 10.1868 4.83016Z" fill="white"/>
<path d="M10.9311 6.15171C10.6121 6.15171 10.3535 5.89315 10.3535 5.57424C10.3535 5.25531 10.6121 4.99677 10.9311 4.99677C11.25 4.99677 11.5086 5.25531 11.5086 5.57424C11.5086 5.89315 11.25 6.15171 10.9311 6.15171Z" fill="white"/>
<path d="M11.6751 7.48255C11.3562 7.48255 11.0977 7.22401 11.0977 6.90508C11.0977 6.58615 11.3562 6.32761 11.6751 6.32761C11.9941 6.32761 12.2526 6.58615 12.2526 6.90508C12.2526 7.22401 11.9941 7.48255 11.6751 7.48255Z" fill="white"/>
<path fill-rule="evenodd" clip-rule="evenodd" d="M11.8141 8.28676C11.8272 8.36706 11.8568 8.44378 11.9011 8.51201L14.1382 12.4538C14.2333 12.6426 14.4288 12.7722 14.6545 12.7722C14.9734 12.7722 15.2321 12.5136 15.2321 12.1947C15.2321 12.0742 15.1953 11.9625 15.1322 11.87L12.9055 7.90103C12.8688 7.83441 12.8193 7.7757 12.7598 7.72825C12.7004 7.68081 12.6322 7.64558 12.559 7.62459C12.486 7.60358 12.4094 7.59724 12.3338 7.6059C12.2583 7.61456 12.1851 7.63806 12.1187 7.67505C12.0467 7.71308 11.9836 7.76565 11.9331 7.82945C11.8826 7.89324 11.846 7.96685 11.8255 8.04558C11.805 8.12432 11.8012 8.20645 11.8141 8.28676Z" fill="white"/>
<path d="M13.3157 5.06318C12.9968 5.06318 12.7383 4.80462 12.7383 4.48571C12.7383 4.16678 12.9968 3.90823 13.3157 3.90823C13.6347 3.90823 13.8932 4.16678 13.8932 4.48571C13.8932 4.80462 13.6347 5.06318 13.3157 5.06318Z" fill="white"/>
<path d="M13.8178 6.49514C13.4989 6.49514 13.2402 6.23654 13.2402 5.91755C13.2402 5.59856 13.4989 5.33997 13.8178 5.33997C14.1367 5.33997 14.3953 5.59856 14.3953 5.91755C14.3953 6.23654 14.1367 6.49514 13.8178 6.49514Z" fill="white"/>
<path fill-rule="evenodd" clip-rule="evenodd" d="M13.803 7.11464C13.7355 7.25275 13.7256 7.41203 13.7756 7.55743L15.2801 11.8154L15.2812 11.8151C15.3522 12.0537 15.5731 12.2275 15.8347 12.2275C16.1536 12.2275 16.4122 11.969 16.4122 11.65C16.4122 11.5587 16.3911 11.4725 16.3533 11.3957L14.8721 7.18079C14.8221 7.0354 14.7164 6.9158 14.5783 6.84831C14.4402 6.78081 14.2809 6.77096 14.1355 6.8209C13.9901 6.87084 13.8705 6.97649 13.803 7.11464Z" fill="white"/>
<path d="M15.6088 2.90358C15.2898 2.90358 15.0312 2.64504 15.0312 2.32611C15.0312 2.00717 15.2898 1.74863 15.6088 1.74863C15.9278 1.74863 16.1863 2.00717 16.1863 2.32611C16.1863 2.64504 15.9278 2.90358 15.6088 2.90358Z" fill="white"/>
<path d="M15.8606 4.40214C15.5417 4.40214 15.2832 4.14359 15.2832 3.82466C15.2832 3.50573 15.5417 3.24719 15.8606 3.24719C16.1796 3.24719 16.4381 3.50573 16.4381 3.82466C16.4381 4.14359 16.1796 4.40214 15.8606 4.40214Z" fill="white"/>
<path d="M16.1028 5.90076C15.7839 5.90076 15.5254 5.64223 15.5254 5.32329C15.5254 5.00437 15.7839 4.74582 16.1028 4.74582C16.4218 4.74582 16.6804 5.00437 16.6804 5.32329C16.6804 5.64223 16.4218 5.90076 16.1028 5.90076Z" fill="white"/>
<path fill-rule="evenodd" clip-rule="evenodd" d="M15.8731 6.48596C15.7845 6.61232 15.7497 6.76873 15.7763 6.92077L16.5148 11.3651H16.5152C16.5406 11.6605 16.7884 11.8923 17.0906 11.8923C17.4094 11.8923 17.668 11.6338 17.668 11.3149C17.668 11.293 17.6668 11.2714 17.6644 11.2501L17.6656 11.25L16.9229 6.7199C16.8963 6.56785 16.8103 6.43261 16.684 6.34391C16.5576 6.25525 16.4012 6.22038 16.2492 6.24701C16.0971 6.27365 15.9619 6.3596 15.8731 6.48596Z" fill="white"/>
<path d="M18.5052 1.15492C18.1862 1.15492 17.9277 0.896373 17.9277 0.577442C17.9277 0.258513 18.1862 -3.05176e-05 18.5052 -3.05176e-05C18.8241 -3.05176e-05 19.0828 0.258513 19.0828 0.577442C19.0828 0.896373 18.8241 1.15492 18.5052 1.15492Z" fill="white"/>
<path d="M18.4877 2.67811C18.1688 2.67811 17.9102 2.41956 17.9102 2.10063C17.9102 1.7817 18.1688 1.52316 18.4877 1.52316C18.8067 1.52316 19.0653 1.7817 19.0653 2.10063C19.0653 2.41956 18.8067 2.67811 18.4877 2.67811Z" fill="white"/>
<path d="M18.472 4.19266C18.153 4.19266 17.8945 3.93412 17.8945 3.61519C17.8945 3.29626 18.153 3.03772 18.472 3.03772C18.7909 3.03772 19.0495 3.29626 19.0495 3.61519C19.0495 3.93412 18.7909 4.19266 18.472 4.19266Z" fill="white"/>
<path d="M18.4544 5.71611C18.1355 5.71611 17.877 5.45752 17.877 5.13853C17.877 4.81955 18.1355 4.56094 18.4544 4.56094C18.7733 4.56094 19.032 4.81955 19.032 5.13853C19.032 5.45752 18.7733 5.71611 18.4544 5.71611Z" fill="white"/>
<path fill-rule="evenodd" clip-rule="evenodd" d="M18.0299 6.23656C17.9216 6.34486 17.8608 6.49175 17.8608 6.64491L17.8112 11.1813C17.8108 11.1895 17.8105 11.1979 17.8105 11.2063C17.8105 11.2104 17.8107 11.2144 17.8108 11.2185L17.8105 11.2315H17.8112C17.8243 11.5387 18.0776 11.7838 18.3881 11.7838C18.6986 11.7838 18.952 11.5387 18.9651 11.2315H18.9656L19.0158 6.64491C19.0158 6.49175 18.955 6.34486 18.8467 6.23656C18.7383 6.12826 18.5915 6.06741 18.4384 6.06741C18.2851 6.06741 18.1383 6.12826 18.0299 6.23656Z" fill="white"/>
<path d="M21.3686 2.94617C21.0496 2.94617 20.791 2.68763 20.791 2.3687C20.791 2.04977 21.0496 1.79123 21.3686 1.79123C21.6875 1.79123 21.9462 2.04977 21.9462 2.3687C21.9462 2.68763 21.6875 2.94617 21.3686 2.94617Z" fill="white"/>
<path d="M21.0833 4.44413C20.7644 4.44413 20.5059 4.18557 20.5059 3.86666C20.5059 3.54773 20.7644 3.28918 21.0833 3.28918C21.4024 3.28918 21.6609 3.54773 21.6609 3.86666C21.6609 4.18557 21.4024 4.44413 21.0833 4.44413Z" fill="white"/>
<path d="M20.7983 5.93346C20.4792 5.93346 20.2207 5.67492 20.2207 5.35598C20.2207 5.03704 20.4792 4.7785 20.7983 4.7785C21.1172 4.7785 21.3757 5.03704 21.3757 5.35598C21.3757 5.67492 21.1172 5.93346 20.7983 5.93346Z" fill="white"/>
<path fill-rule="evenodd" clip-rule="evenodd" d="M20.1939 6.34841C20.0676 6.43553 19.981 6.56927 19.9532 6.72021L19.1229 11.1604C19.1078 11.2122 19.0996 11.267 19.0996 11.3236C19.0996 11.6426 19.3582 11.9011 19.6772 11.9011C19.9641 11.9011 20.2024 11.6916 20.2471 11.4171L20.2505 11.4177L21.0916 6.92945C21.1193 6.7785 21.0859 6.62272 20.9988 6.49636C20.9118 6.37001 20.7779 6.28344 20.6271 6.25569C20.4761 6.22795 20.3202 6.2613 20.1939 6.34841Z" fill="white"/>
<path d="M23.6108 5.13947C23.2918 5.13947 23.0332 4.88092 23.0332 4.562C23.0332 4.24307 23.2918 3.98453 23.6108 3.98453C23.9297 3.98453 24.1882 4.24307 24.1882 4.562C24.1882 4.88092 23.9297 5.13947 23.6108 5.13947Z" fill="white"/>
<path d="M23.0756 6.5618C22.7567 6.5618 22.498 6.30326 22.498 5.98433C22.498 5.6654 22.7567 5.40686 23.0756 5.40686C23.3946 5.40686 23.6531 5.6654 23.6531 5.98433C23.6531 6.30326 23.3946 6.5618 23.0756 6.5618Z" fill="white"/>
<path fill-rule="evenodd" clip-rule="evenodd" d="M22.3005 6.87278C22.16 6.93634 22.0505 7.05311 21.9961 7.1974L20.4101 11.4214C20.3751 11.4958 20.3555 11.579 20.3555 11.6668C20.3555 11.9857 20.6141 12.2443 20.9329 12.2443C21.1696 12.2443 21.3731 12.1019 21.4623 11.8982L21.4645 11.899L23.0842 7.60752C23.1386 7.46323 23.1334 7.30326 23.0698 7.16277C23.0062 7.02229 22.8895 6.91282 22.7452 6.85844C22.6009 6.80405 22.441 6.80922 22.3005 6.87278Z" fill="white"/>
<path d="M26.7573 4.9629C26.4383 4.9629 26.1797 4.70437 26.1797 4.38542C26.1797 4.06649 26.4383 3.80795 26.7573 3.80795C27.0762 3.80795 27.3347 4.06649 27.3347 4.38542C27.3347 4.70437 27.0762 4.9629 26.7573 4.9629Z" fill="white"/>
<path d="M25.9778 6.26908C25.6589 6.26908 25.4004 6.01053 25.4004 5.69161C25.4004 5.37268 25.6589 5.11414 25.9778 5.11414C26.2968 5.11414 26.5554 5.37268 26.5554 5.69161C26.5554 6.01053 26.2968 6.26908 25.9778 6.26908Z" fill="white"/>
<path d="M25.2084 7.57386C24.8895 7.57386 24.6309 7.31532 24.6309 6.99639C24.6309 6.67746 24.8895 6.41891 25.2084 6.41891C25.5272 6.41891 25.7859 6.67746 25.7859 6.99639C25.7859 7.31532 25.5272 7.57386 25.2084 7.57386Z" fill="white"/>
<path fill-rule="evenodd" clip-rule="evenodd" d="M24.2874 7.74284C24.14 7.78205 24.014 7.87798 23.9371 8.00967L21.6208 11.91L21.6238 11.9119C21.5675 12.001 21.5352 12.1064 21.5352 12.2195C21.5352 12.5385 21.7937 12.797 22.1126 12.797C22.3107 12.797 22.4854 12.6972 22.5894 12.5454L22.5937 12.5481L24.9331 8.63739C24.9777 8.56968 25.0078 8.49342 25.0214 8.41348C25.035 8.33355 25.0319 8.25164 25.0122 8.17297C24.9925 8.0943 24.9568 8.02057 24.9072 7.95645C24.8574 7.89232 24.7951 7.83919 24.7238 7.80042C24.5916 7.72435 24.4347 7.70366 24.2874 7.74284Z" fill="white"/>
<path d="M30.097 5.48152C29.778 5.48152 29.5195 5.22297 29.5195 4.90404C29.5195 4.58511 29.778 4.32657 30.097 4.32657C30.4159 4.32657 30.6744 4.58511 30.6744 4.90404C30.6744 5.22297 30.4159 5.48152 30.097 5.48152Z" fill="white"/>
<path d="M29.1106 6.63759C28.7917 6.63759 28.5332 6.379 28.5332 6.06001C28.5332 5.74103 28.7917 5.48242 29.1106 5.48242C29.4296 5.48242 29.6881 5.74103 29.6881 6.06001C29.6881 6.379 29.4296 6.63759 29.1106 6.63759Z" fill="white"/>
<path d="M28.1204 7.78337C27.8015 7.78337 27.543 7.52477 27.543 7.20579C27.543 6.8868 27.8015 6.6282 28.1204 6.6282C28.4395 6.6282 28.698 6.8868 28.698 7.20579C28.698 7.52477 28.4395 7.78337 28.1204 7.78337Z" fill="white"/>
<path d="M27.1263 8.93851C26.8075 8.93851 26.5488 8.67997 26.5488 8.36104C26.5488 8.04212 26.8075 7.78357 27.1263 7.78357C27.4452 7.78357 27.7038 8.04212 27.7038 8.36104C27.7038 8.67997 27.4452 8.93851 27.1263 8.93851Z" fill="white"/>
<path fill-rule="evenodd" clip-rule="evenodd" d="M25.8816 8.98244C25.8118 9.01916 25.7504 9.07001 25.7011 9.13173L22.7627 12.6179C22.6549 12.7228 22.5879 12.8694 22.5879 13.0318C22.5879 13.3507 22.8464 13.6092 23.1653 13.6092C23.3419 13.6092 23.4999 13.53 23.6058 13.4053L23.6068 13.4064L26.6051 9.9101C26.6567 9.85116 26.6959 9.78258 26.7205 9.70829C26.7451 9.63401 26.7545 9.55549 26.7483 9.47752C26.7421 9.39947 26.7203 9.32353 26.6842 9.25402C26.648 9.18462 26.5984 9.12309 26.5382 9.07316C26.4809 9.01886 26.4129 8.97708 26.3388 8.95044C26.2645 8.9238 26.1855 8.91287 26.1068 8.91838C26.0281 8.9239 25.9515 8.94571 25.8816 8.98244Z" fill="white"/>
<path d="M31.136 8.68842C30.8171 8.68842 30.5586 8.42988 30.5586 8.11095C30.5586 7.79202 30.8171 7.53348 31.136 7.53348C31.455 7.53348 31.7136 7.79202 31.7136 8.11095C31.7136 8.42988 31.455 8.68842 31.136 8.68842Z" fill="white"/>
<path d="M29.9622 9.65803C29.6433 9.65803 29.3848 9.39951 29.3848 9.08054C29.3848 8.76162 29.6433 8.50308 29.9622 8.50308C30.2812 8.50308 30.5398 8.76162 30.5398 9.08054C30.5398 9.39951 30.2812 9.65803 29.9622 9.65803Z" fill="white"/>
<path d="M28.7826 10.6206C28.4637 10.6206 28.2051 10.3619 28.2051 10.043C28.2051 9.72399 28.4637 9.46542 28.7826 9.46542C29.1016 9.46542 29.3601 9.72399 29.3601 10.043C29.3601 10.3619 29.1016 10.6206 28.7826 10.6206Z" fill="white"/>
<path fill-rule="evenodd" clip-rule="evenodd" d="M27.4422 10.4474C27.3693 10.4695 27.3016 10.5059 27.2428 10.5542L23.748 13.4431C23.6036 13.5481 23.5098 13.7184 23.5098 13.9105C23.5098 14.2294 23.7684 14.4879 24.0873 14.4879C24.2319 14.4879 24.3641 14.4348 24.4653 14.3471L24.466 14.3478L27.9794 11.4497C28.0382 11.4014 28.0868 11.342 28.1227 11.2748C28.1584 11.2076 28.1807 11.134 28.188 11.0583C28.1954 10.9825 28.1879 10.906 28.1657 10.8331C28.1434 10.7603 28.1072 10.6925 28.0588 10.6338C28.0105 10.5749 27.951 10.5262 27.8838 10.4904C27.8166 10.4546 27.743 10.4323 27.6672 10.425C27.5916 10.4176 27.515 10.4252 27.4422 10.4474Z" fill="white"/>
<path d="M31.4446 11.8177C31.1257 11.8177 30.8672 11.5591 30.8672 11.2401C30.8672 10.9211 31.1257 10.6625 31.4446 10.6625C31.7636 10.6625 32.0222 10.9211 32.0222 11.2401C32.0222 11.5591 31.7636 11.8177 31.4446 11.8177Z" fill="white"/>
<path d="M30.1225 12.5626C29.8036 12.5626 29.5449 12.304 29.5449 11.985C29.5449 11.666 29.8036 11.4074 30.1225 11.4074C30.4414 11.4074 30.6999 11.666 30.6999 11.985C30.6999 12.304 30.4414 12.5626 30.1225 12.5626Z" fill="white"/>
<path fill-rule="evenodd" clip-rule="evenodd" d="M28.7398 12.1328C28.6595 12.1458 28.5828 12.1754 28.5145 12.2197L24.5641 14.513L24.5655 14.5155C24.4083 14.6187 24.3047 14.7965 24.3047 14.9985C24.3047 15.3174 24.5632 15.5759 24.8821 15.5759C24.9683 15.5759 25.0501 15.557 25.1235 15.5233L25.1249 15.5257L29.1255 13.2742C29.1972 13.2361 29.2603 13.1835 29.3109 13.12C29.3616 13.0565 29.3986 12.9832 29.4197 12.9048C29.4409 12.8263 29.4458 12.7444 29.4341 12.6639C29.4224 12.5836 29.3942 12.5065 29.3515 12.4373C29.3135 12.3654 29.2608 12.3022 29.1971 12.2517C29.1333 12.2012 29.0597 12.1645 28.9809 12.1441C28.9022 12.1236 28.8201 12.1198 28.7398 12.1328Z" fill="white"/>
<path d="M33.972 13.6925C33.653 13.6925 33.3945 13.4338 33.3945 13.115C33.3945 12.7961 33.653 12.5375 33.972 12.5375C34.2909 12.5375 34.5496 12.7961 34.5496 13.115C34.5496 13.4338 34.2909 13.6925 33.972 13.6925Z" fill="white"/>
<path d="M32.5405 14.2037C32.2215 14.2037 31.9629 13.9449 31.9629 13.626C31.9629 13.307 32.2215 13.0484 32.5405 13.0484C32.8594 13.0484 33.1179 13.307 33.1179 13.626C33.1179 13.9449 32.8594 14.2037 32.5405 14.2037Z" fill="white"/>
<path d="M31.1106 14.7055C30.7917 14.7055 30.5332 14.4468 30.5332 14.1279C30.5332 13.809 30.7917 13.5504 31.1106 13.5504C31.4296 13.5504 31.6882 13.809 31.6882 14.1279C31.6882 14.4468 31.4296 14.7055 31.1106 14.7055Z" fill="white"/>
<path fill-rule="evenodd" clip-rule="evenodd" d="M29.9229 14.107C29.7838 14.0397 29.6241 14.0293 29.4776 14.0779L25.1462 15.6031L25.1474 15.6065C24.9424 15.695 24.7988 15.8991 24.7988 16.1369C24.7988 16.4558 25.0573 16.7143 25.3763 16.7143C25.4624 16.7143 25.544 16.6954 25.6174 16.6617L29.8625 15.1742C30.0069 15.1229 30.1255 15.0171 30.1928 14.8793C30.26 14.7417 30.2707 14.5832 30.2225 14.4378C30.1694 14.2927 30.062 14.174 29.9229 14.107Z" fill="white"/>
<path d="M36.1987 16.2455C35.8797 16.2455 35.6211 15.9869 35.6211 15.668C35.6211 15.349 35.8797 15.0903 36.1987 15.0903C36.5176 15.0903 36.7761 15.349 36.7761 15.668C36.7761 15.9869 36.5176 16.2455 36.1987 16.2455Z" fill="white"/>
<path d="M34.7005 16.4877C34.3816 16.4877 34.123 16.2292 34.123 15.9102C34.123 15.5911 34.3816 15.3325 34.7005 15.3325C35.0194 15.3325 35.2779 15.5911 35.2779 15.9102C35.2779 16.2292 35.0194 16.4877 34.7005 16.4877Z" fill="white"/>
<path d="M33.2024 16.739C32.8836 16.739 32.625 16.4805 32.625 16.1616C32.625 15.8426 32.8836 15.584 33.2024 15.584C33.5214 15.584 33.78 15.8426 33.78 16.1616C33.78 16.4805 33.5214 16.739 33.2024 16.739Z" fill="white"/>
<path d="M31.7045 16.9819C31.3856 16.9819 31.127 16.7234 31.127 16.4044C31.127 16.0855 31.3856 15.827 31.7045 15.827C32.0235 15.827 32.282 16.0855 32.282 16.4044C32.282 16.7234 32.0235 16.9819 31.7045 16.9819Z" fill="white"/>
<path fill-rule="evenodd" clip-rule="evenodd" d="M30.3306 16.09C30.2563 16.0742 30.1796 16.073 30.1048 16.0869L25.5748 16.8274L25.575 16.829C25.3174 16.8871 25.125 17.1172 25.125 17.3925C25.125 17.7114 25.3836 17.9699 25.7026 17.9699C25.7265 17.9699 25.75 17.9684 25.7732 17.9656L25.7736 17.9678L30.3141 17.225C30.3888 17.2113 30.4601 17.1831 30.5239 17.1418C30.5877 17.1004 30.6427 17.047 30.6858 16.9844C30.729 16.9218 30.7593 16.8514 30.7753 16.7771C30.7912 16.7027 30.7923 16.626 30.7786 16.5514C30.7649 16.4766 30.7365 16.4053 30.6952 16.3415C30.6539 16.2778 30.6004 16.2226 30.5378 16.1795C30.4754 16.1364 30.4049 16.106 30.3306 16.09Z" fill="white"/>
<path d="M34.9271 19.3667C34.6081 19.3667 34.3496 19.1082 34.3496 18.7892C34.3496 18.4703 34.6081 18.2116 34.9271 18.2116C35.246 18.2116 35.5046 18.4703 35.5046 18.7892C35.5046 19.1082 35.246 19.3667 34.9271 19.3667Z" fill="white"/>
<path d="M33.4114 19.3513C33.0925 19.3513 32.834 19.0926 32.834 18.7737C32.834 18.4547 33.0925 18.1961 33.4114 18.1961C33.7304 18.1961 33.989 18.4547 33.989 18.7737C33.989 19.0926 33.7304 19.3513 33.4114 19.3513Z" fill="white"/>
<path d="M31.888 19.334C31.5691 19.334 31.3105 19.0755 31.3105 18.7565C31.3105 18.4376 31.5691 18.179 31.888 18.179C32.2071 18.179 32.4656 18.4376 32.4656 18.7565C32.4656 19.0755 32.2071 19.334 31.888 19.334Z" fill="white"/>
<path fill-rule="evenodd" clip-rule="evenodd" d="M30.7898 18.331C30.6815 18.2228 30.5345 18.1618 30.3814 18.1618L25.85 18.1124C25.8399 18.1119 25.83 18.1117 25.8196 18.1117C25.8138 18.1117 25.808 18.1118 25.8023 18.1119L25.7781 18.1117V18.1132C25.4787 18.1346 25.2422 18.3843 25.2422 18.6891C25.2422 18.9891 25.4708 19.2356 25.7635 19.2639V19.2644L25.7699 19.2646C25.7864 19.266 25.803 19.2667 25.8196 19.2667C25.832 19.2667 25.8442 19.2663 25.8562 19.2655L30.3814 19.3168C30.5345 19.3168 30.6815 19.256 30.7898 19.1477C30.898 19.0394 30.9589 18.8925 30.9589 18.7394C30.9589 18.5863 30.898 18.4393 30.7898 18.331Z" fill="white"/>
<path d="M33.1616 21.9623C32.8426 21.9623 32.584 21.7038 32.584 21.3849C32.584 21.0659 32.8426 20.8074 33.1616 20.8074C33.4805 20.8074 33.739 21.0659 33.739 21.3849C33.739 21.7038 33.4805 21.9623 33.1616 21.9623Z" fill="white"/>
<path d="M31.6694 21.6861C31.3503 21.6861 31.0918 21.4275 31.0918 21.1085C31.0918 20.7896 31.3503 20.5311 31.6694 20.5311C31.9883 20.5311 32.2468 20.7896 32.2468 21.1085C32.2468 21.4275 31.9883 21.6861 31.6694 21.6861Z" fill="white"/>
<path fill-rule="evenodd" clip-rule="evenodd" d="M25.5945 20.5551C25.3233 20.5076 25.1172 20.271 25.1172 19.9862C25.1172 19.6673 25.3758 19.4086 25.6948 19.4086C25.7319 19.4086 25.7682 19.4123 25.8034 19.419L25.8037 19.4172L30.315 20.2543C30.4658 20.282 30.5997 20.3685 30.6867 20.4949C30.7738 20.6213 30.8072 20.7771 30.7795 20.928C30.7516 21.0789 30.6651 21.2126 30.5387 21.2999C30.4124 21.3869 30.2567 21.4202 30.1057 21.3925L25.5945 20.5556V20.5551Z" fill="white"/>
<path d="M33.888 25.0333C33.5691 25.0333 33.3105 24.7748 33.3105 24.4558C33.3105 24.1369 33.5691 23.8784 33.888 23.8784C34.2069 23.8784 34.4656 24.1369 34.4656 24.4558C34.4656 24.7748 34.2069 25.0333 33.888 25.0333Z" fill="white"/>
<path d="M32.4661 24.4976C32.1472 24.4976 31.8887 24.2391 31.8887 23.9201C31.8887 23.6012 32.1472 23.3427 32.4661 23.3427C32.7851 23.3427 33.0437 23.6012 33.0437 23.9201C33.0437 24.2391 32.7851 24.4976 32.4661 24.4976Z" fill="white"/>
<path d="M31.0423 23.9616C30.7233 23.9616 30.4648 23.7031 30.4648 23.3842C30.4648 23.0652 30.7233 22.8066 31.0423 22.8066C31.3612 22.8066 31.6199 23.0652 31.6199 23.3842C31.6199 23.7031 31.3612 23.9616 31.0423 23.9616Z" fill="white"/>
<path fill-rule="evenodd" clip-rule="evenodd" d="M25.2037 21.8155C24.952 21.753 24.7656 21.5258 24.7656 21.2549C24.7656 20.936 25.0241 20.6773 25.3431 20.6773C25.4073 20.6773 25.4691 20.6879 25.5268 20.7072L25.5272 20.7066L29.829 22.3052C29.9722 22.3597 30.0879 22.4686 30.1508 22.6084C30.2135 22.748 30.2183 22.9069 30.1639 23.0501C30.1379 23.1216 30.0978 23.1873 30.046 23.2431C29.9941 23.2989 29.9317 23.3437 29.8622 23.3751C29.7928 23.4062 29.7177 23.4232 29.6416 23.4249C29.5655 23.4266 29.4897 23.413 29.4189 23.3849L25.2037 21.8155Z" fill="white"/>
<path d="M33.9544 28.4152C33.6355 28.4152 33.377 28.1565 33.377 27.8375C33.377 27.5186 33.6355 27.2599 33.9544 27.2599C34.2733 27.2599 34.532 27.5186 34.532 27.8375C34.532 28.1565 34.2733 28.4152 33.9544 28.4152Z" fill="white"/>
<path d="M32.6419 27.6366C32.323 27.6366 32.0645 27.378 32.0645 27.0591C32.0645 26.7402 32.323 26.4817 32.6419 26.4817C32.9608 26.4817 33.2195 26.7402 33.2195 27.0591C33.2195 27.378 32.9608 27.6366 32.6419 27.6366Z" fill="white"/>
<path d="M31.3354 26.866C31.0164 26.866 30.7578 26.6075 30.7578 26.2886C30.7578 25.9698 31.0164 25.7112 31.3354 25.7112C31.6543 25.7112 31.9128 25.9698 31.9128 26.2886C31.9128 26.6075 31.6543 26.866 31.3354 26.866Z" fill="white"/>
<path d="M30.0307 26.0884C29.7118 26.0884 29.4531 25.8299 29.4531 25.511C29.4531 25.1922 29.7118 24.9335 30.0307 24.9335C30.3496 24.9335 30.6081 25.1922 30.6081 25.511C30.6081 25.8299 30.3496 26.0884 30.0307 26.0884Z" fill="white"/>
<path fill-rule="evenodd" clip-rule="evenodd" d="M24.4685 22.9135C24.3078 22.811 24.2012 22.6311 24.2012 22.4263C24.2012 22.1075 24.4598 21.8489 24.7787 21.8489C24.9038 21.8489 25.0196 21.8887 25.1141 21.9562L29.0179 24.2381C29.0891 24.2769 29.1515 24.33 29.2011 24.3941C29.2509 24.4583 29.2866 24.5321 29.3063 24.6107C29.3259 24.6894 29.3291 24.7712 29.3155 24.8512C29.3019 24.9312 29.2718 25.0073 29.2271 25.0751C29.1883 25.1408 29.1369 25.1981 29.0758 25.2438C29.0148 25.2894 28.9453 25.3225 28.8714 25.3411C28.7974 25.3599 28.7206 25.3637 28.6452 25.3525C28.5698 25.3413 28.4973 25.3153 28.432 25.2759L24.467 22.9159L24.4685 22.9135Z" fill="white"/>
<path d="M30.9681 29.9887C30.6491 29.9887 30.3906 29.7302 30.3906 29.4112C30.3906 29.0923 30.6491 28.8338 30.9681 28.8338C31.287 28.8338 31.5455 29.0923 31.5455 29.4112C31.5455 29.7302 31.287 29.9887 30.9681 29.9887Z" fill="white"/>
<path d="M29.8196 29.0001C29.5007 29.0001 29.2422 28.7415 29.2422 28.4225C29.2422 28.1036 29.5007 27.845 29.8196 27.845C30.1386 27.845 30.3972 28.1036 30.3972 28.4225C30.3972 28.7415 30.1386 29.0001 29.8196 29.0001Z" fill="white"/>
<path d="M28.6655 28.0127C28.3465 28.0127 28.0879 27.7541 28.0879 27.4352C28.0879 27.1162 28.3465 26.8577 28.6655 26.8577C28.9844 26.8577 29.2429 27.1162 29.2429 27.4352C29.2429 27.7541 28.9844 28.0127 28.6655 28.0127Z" fill="white"/>
<path fill-rule="evenodd" clip-rule="evenodd" d="M24.3741 23.0193C24.4029 23.0393 24.4295 23.0618 24.4542 23.0865L27.8858 25.9707C28.0024 26.0706 28.0744 26.2127 28.0862 26.3657C28.098 26.5188 28.0485 26.6702 27.9486 26.7866C27.8486 26.9032 27.7066 26.9754 27.5535 26.9871C27.4005 26.9988 27.2492 26.9495 27.1326 26.8495L23.6383 23.9097L23.6409 23.9066C23.5335 23.8017 23.4668 23.6554 23.4668 23.4933C23.4668 23.1744 23.7254 22.9159 24.0444 22.9159C24.1652 22.9159 24.2776 22.953 24.3702 23.0166L24.3706 23.0162L24.3741 23.0193Z" fill="white"/>
<path d="M27.9446 30.8421C27.6258 30.8421 27.3672 30.5836 27.3672 30.2646C27.3672 29.9457 27.6258 29.6872 27.9446 29.6872C28.2637 29.6872 28.5222 29.9457 28.5222 30.2646C28.5222 30.5836 28.2637 30.8421 27.9446 30.8421Z" fill="white"/>
<path d="M26.9837 29.6702C26.6648 29.6702 26.4062 29.4116 26.4062 29.0926C26.4062 28.7737 26.6648 28.5152 26.9837 28.5152C27.3026 28.5152 27.5611 28.7737 27.5611 29.0926C27.5611 29.4116 27.3026 29.6702 26.9837 29.6702Z" fill="white"/>
<path fill-rule="evenodd" clip-rule="evenodd" d="M22.7165 24.842C22.6003 24.7364 22.5273 24.5839 22.5273 24.4145C22.5273 24.0957 22.786 23.8371 23.1049 23.8371C23.3026 23.8371 23.4772 23.9365 23.5813 24.0881L26.4738 27.5448C26.5243 27.6047 26.5624 27.6742 26.5856 27.7491C26.6088 27.824 26.6168 27.9029 26.609 27.9809C26.6012 28.0589 26.5777 28.1347 26.5401 28.2034C26.5025 28.2723 26.4515 28.3329 26.3899 28.3816C26.3306 28.4333 26.2611 28.4724 26.1861 28.4963C26.111 28.5202 26.0318 28.5284 25.9535 28.5206C25.875 28.5128 25.7991 28.489 25.7302 28.4507C25.6614 28.4124 25.6011 28.3604 25.5531 28.298L22.7165 24.842Z" fill="white"/>
<path d="M26.5306 33.6546C26.2116 33.6546 25.9531 33.3961 25.9531 33.0772C25.9531 32.7583 26.2116 32.4998 26.5306 32.4998C26.8495 32.4998 27.1081 32.7583 27.1081 33.0772C27.1081 33.3961 26.8495 33.6546 26.5306 33.6546Z" fill="white"/>
<path d="M25.7864 32.3317C25.4675 32.3317 25.209 32.0732 25.209 31.7542C25.209 31.4353 25.4675 31.1768 25.7864 31.1768C26.1054 31.1768 26.364 31.4353 26.364 31.7542C26.364 32.0732 26.1054 32.3317 25.7864 32.3317Z" fill="white"/>
<path d="M25.0423 31.0088C24.7233 31.0088 24.4648 30.7503 24.4648 30.4314C24.4648 30.1125 24.7233 29.8538 25.0423 29.8538C25.3612 29.8538 25.6197 30.1125 25.6197 30.4314C25.6197 30.7503 25.3612 31.0088 25.0423 31.0088Z" fill="white"/>
<path fill-rule="evenodd" clip-rule="evenodd" d="M21.5488 25.3833C21.5125 25.3076 21.4922 25.2229 21.4922 25.1335C21.4922 24.8145 21.7507 24.556 22.0696 24.556C22.3053 24.556 22.5081 24.6971 22.5978 24.8994L24.8065 28.8242C24.8809 28.9584 24.8989 29.1168 24.8565 29.2644C24.8142 29.4118 24.7149 29.5366 24.5806 29.6109C24.4463 29.6853 24.288 29.7032 24.1404 29.6609C23.9929 29.6184 23.8682 29.5192 23.7938 29.385L21.5467 25.3844L21.5488 25.3833Z" fill="white"/>
<path d="M24.4135 36.2907C24.0946 36.2907 23.8359 36.0321 23.8359 35.7131C23.8359 35.3941 24.0946 35.1356 24.4135 35.1356C24.7325 35.1356 24.9911 35.3941 24.9911 35.7131C24.9911 36.0321 24.7325 36.2907 24.4135 36.2907Z" fill="white"/>
<path d="M23.9036 34.8516C23.5847 34.8516 23.3262 34.5931 23.3262 34.2742C23.3262 33.9551 23.5847 33.6966 23.9036 33.6966C24.2227 33.6966 24.4812 33.9551 24.4812 34.2742C24.4812 34.5931 24.2227 34.8516 23.9036 34.8516Z" fill="white"/>
<path d="M23.4017 33.4196C23.0827 33.4196 22.8242 33.1611 22.8242 32.8422C22.8242 32.5232 23.0827 32.2647 23.4017 32.2647C23.7206 32.2647 23.9792 32.5232 23.9792 32.8422C23.9792 33.1611 23.7206 33.4196 23.4017 33.4196Z" fill="white"/>
<path d="M22.8998 31.9892C22.5809 31.9892 22.3223 31.7306 22.3223 31.4117C22.3223 31.0928 22.5809 30.8343 22.8998 30.8343C23.2188 30.8343 23.4773 31.0928 23.4773 31.4117C23.4773 31.7306 23.2188 31.9892 22.8998 31.9892Z" fill="white"/>
<path fill-rule="evenodd" clip-rule="evenodd" d="M20.3439 25.8668C20.3235 25.8078 20.3125 25.7444 20.3125 25.6786C20.3125 25.3596 20.571 25.101 20.8899 25.101C21.1355 25.101 21.3453 25.2544 21.4287 25.4703L21.4318 25.4693L22.9403 29.788C22.9848 29.9305 22.9722 30.0847 22.9052 30.2183C22.8384 30.3518 22.7224 30.4542 22.5816 30.504C22.4408 30.5539 22.2862 30.5471 22.1502 30.4854C22.0142 30.4237 21.9075 30.3116 21.8523 30.173L20.3437 25.867L20.3439 25.8668Z" fill="white"/>
<path d="M21.1088 35.579C20.7899 35.579 20.5312 35.3204 20.5312 35.0013C20.5312 34.6824 20.7899 34.4239 21.1088 34.4239C21.4278 34.4239 21.6863 34.6824 21.6863 35.0013C21.6863 35.3204 21.4278 35.579 21.1088 35.579Z" fill="white"/>
<path d="M20.8647 34.0803C20.5457 34.0803 20.2871 33.8217 20.2871 33.5028C20.2871 33.1838 20.5457 32.9252 20.8647 32.9252C21.1836 32.9252 21.4423 33.1838 21.4423 33.5028C21.4423 33.8217 21.1836 34.0803 20.8647 34.0803Z" fill="white"/>
<path d="M20.6147 32.583C20.2957 32.583 20.0371 32.3244 20.0371 32.0055C20.0371 31.6865 20.2957 31.428 20.6147 31.428C20.9336 31.428 21.1921 31.6865 21.1921 32.0055C21.1921 32.3244 20.9336 32.583 20.6147 32.583Z" fill="white"/>
<path fill-rule="evenodd" clip-rule="evenodd" d="M19.0595 26.071C19.0575 26.052 19.0566 26.0328 19.0566 26.0131C19.0566 25.6942 19.3151 25.4357 19.6341 25.4357C19.9436 25.4357 20.1962 25.6792 20.2109 25.9849L20.9398 30.4154C20.9548 30.5619 20.9133 30.7087 20.8236 30.8257C20.734 30.9427 20.603 31.0209 20.4576 31.0444C20.3121 31.068 20.1631 31.035 20.0412 30.9523C19.9192 30.8695 19.8334 30.7434 19.8016 30.5994L19.0566 26.0715L19.0595 26.071Z" fill="white"/>
<path d="M18.2553 34.2901C17.9364 34.2901 17.6777 34.0316 17.6777 33.7126C17.6777 33.3936 17.9364 33.135 18.2553 33.135C18.5743 33.135 18.8329 33.3936 18.8329 33.7126C18.8329 34.0316 18.5743 34.2901 18.2553 34.2901Z" fill="white"/>
<path d="M18.2708 32.7757C17.9519 32.7757 17.6934 32.517 17.6934 32.198C17.6934 31.879 17.9519 31.6205 18.2708 31.6205C18.5897 31.6205 18.8483 31.879 18.8483 32.198C18.8483 32.517 18.5897 32.7757 18.2708 32.7757Z" fill="white"/>
<path fill-rule="evenodd" clip-rule="evenodd" d="M18.9145 26.1042C18.9147 26.11 18.9149 26.1158 18.9149 26.1217C18.9149 26.1318 18.9145 26.1418 18.9141 26.1519L18.8646 30.683C18.8624 30.837 18.7997 30.9839 18.6901 31.0918C18.5804 31.1999 18.4327 31.2605 18.2787 31.2605C18.124 31.2561 17.9772 31.1917 17.8694 31.0806C17.7615 30.9697 17.7012 30.821 17.7012 30.6662L17.7597 26.0798H17.7614C17.7828 25.7803 18.0325 25.5441 18.3373 25.5441C18.6423 25.5441 18.8918 25.7803 18.9134 26.0798H18.9149L18.9145 26.1042Z" fill="white"/>
<path d="M15.3587 35.5372C15.0398 35.5372 14.7812 35.2787 14.7812 34.9598C14.7812 34.6408 15.0398 34.3823 15.3587 34.3823C15.6776 34.3823 15.9363 34.6408 15.9363 34.9598C15.9363 35.2787 15.6776 35.5372 15.3587 35.5372Z" fill="white"/>
<path d="M15.6419 34.0477C15.323 34.0477 15.0645 33.7892 15.0645 33.4702C15.0645 33.1513 15.323 32.8928 15.6419 32.8928C15.9608 32.8928 16.2193 33.1513 16.2193 33.4702C16.2193 33.7892 15.9608 34.0477 15.6419 34.0477Z" fill="white"/>
<path d="M15.9192 32.5489C15.6003 32.5489 15.3418 32.2904 15.3418 31.9715C15.3418 31.6525 15.6003 31.3939 15.9192 31.3939C16.2382 31.3939 16.4968 31.6525 16.4968 31.9715C16.4968 32.2904 16.2382 32.5489 15.9192 32.5489Z" fill="white"/>
<path fill-rule="evenodd" clip-rule="evenodd" d="M17.5735 26.2255L16.7715 30.5919C16.7411 30.742 16.6531 30.8743 16.5264 30.9603C16.3997 31.0463 16.2443 31.0793 16.0936 31.0522C16.0182 31.0393 15.9462 31.0112 15.882 30.9698C15.8176 30.9283 15.7623 30.8744 15.7194 30.8111C15.6765 30.7478 15.6466 30.6765 15.6319 30.6015C15.617 30.5264 15.6175 30.4492 15.6333 30.3743L16.4702 25.8631L16.4792 25.8648C16.542 25.6138 16.7689 25.4279 17.0395 25.4279C17.3584 25.4279 17.6171 25.6864 17.6171 26.0053C17.6171 26.0832 17.6016 26.1577 17.5735 26.2255Z" fill="white"/>
<path d="M12.0346 36.1902C11.7157 36.1902 11.457 35.9317 11.457 35.6128C11.457 35.2938 11.7157 35.0353 12.0346 35.0353C12.3535 35.0353 12.6121 35.2938 12.6121 35.6128C12.6121 35.9317 12.3535 36.1902 12.0346 36.1902Z" fill="white"/>
<path d="M12.5716 34.7672C12.2527 34.7672 11.9941 34.5087 11.9941 34.1898C11.9941 33.8708 12.2527 33.6123 12.5716 33.6123C12.8905 33.6123 13.1491 33.8708 13.1491 34.1898C13.1491 34.5087 12.8905 34.7672 12.5716 34.7672Z" fill="white"/>
<path d="M13.1068 33.3451C12.7878 33.3451 12.5293 33.0866 12.5293 32.7677C12.5293 32.4488 12.7878 32.1901 13.1068 32.1901C13.4257 32.1901 13.6842 32.4488 13.6842 32.7677C13.6842 33.0866 13.4257 33.3451 13.1068 33.3451Z" fill="white"/>
<path d="M13.642 31.9208C13.3231 31.9208 13.0645 31.6623 13.0645 31.3433C13.0645 31.0244 13.3231 30.7659 13.642 30.7659C13.961 30.7659 14.2195 31.0244 14.2195 31.3433C14.2195 31.6623 13.961 31.9208 13.642 31.9208Z" fill="white"/>
<path fill-rule="evenodd" clip-rule="evenodd" d="M16.3172 25.8878H16.3174L14.7229 30.1563C14.6966 30.228 14.6563 30.2937 14.6043 30.3497C14.5524 30.4057 14.49 30.4507 14.4205 30.4823C14.351 30.5141 14.2759 30.5316 14.1996 30.5341C14.1233 30.5366 14.0472 30.5239 13.9759 30.4967C13.9046 30.4696 13.8392 30.4286 13.7838 30.3761C13.7284 30.3236 13.684 30.2607 13.653 30.191C13.6222 30.1212 13.6053 30.0459 13.6036 29.9696C13.602 29.8933 13.6154 29.8174 13.6433 29.7464L15.2321 25.4969C15.3031 25.2582 15.524 25.0842 15.7856 25.0842C16.1046 25.0842 16.3632 25.3427 16.3632 25.6618C16.3632 25.742 16.3468 25.8183 16.3172 25.8878Z" fill="white"/>
<path d="M9.96818 33.5286C9.64924 33.5286 9.39062 33.27 9.39062 32.9512C9.39062 32.6322 9.64924 32.3737 9.96818 32.3737C10.2871 32.3737 10.5457 32.6322 10.5457 32.9512C10.5457 33.27 10.2871 33.5286 9.96818 33.5286Z" fill="white"/>
<path d="M10.7376 32.2225C10.4187 32.2225 10.1602 31.964 10.1602 31.645C10.1602 31.3261 10.4187 31.0676 10.7376 31.0676C11.0566 31.0676 11.3151 31.3261 11.3151 31.645C11.3151 31.964 11.0566 32.2225 10.7376 32.2225Z" fill="white"/>
<path d="M11.5169 30.9175C11.198 30.9175 10.9395 30.6589 10.9395 30.3398C10.9395 30.0209 11.198 29.7624 11.5169 29.7624C11.8359 29.7624 12.0944 30.0209 12.0944 30.3398C12.0944 30.6589 11.8359 30.9175 11.5169 30.9175Z" fill="white"/>
<path fill-rule="evenodd" clip-rule="evenodd" d="M14.1346 24.7857C14.2384 24.6321 14.4142 24.5311 14.6135 24.5311C14.9325 24.5311 15.191 24.7898 15.191 25.1087C15.191 25.2191 15.1599 25.3225 15.106 25.4104L15.1099 25.4128L12.7888 29.3188C12.7497 29.3841 12.6984 29.4412 12.6372 29.4866C12.5761 29.5321 12.5067 29.5652 12.4329 29.5838C12.3591 29.6025 12.2823 29.6064 12.2069 29.5954C12.1316 29.5844 12.0592 29.5587 11.9937 29.5195C11.9283 29.4806 11.8712 29.4291 11.8257 29.3679C11.7803 29.3068 11.7473 29.2375 11.7286 29.1637C11.71 29.0899 11.706 29.0131 11.717 28.9377C11.7281 28.8622 11.7538 28.79 11.7928 28.7245L14.1336 24.7851L14.1346 24.7857Z" fill="white"/>
<path d="M8.60286 30.6992C8.28392 30.6992 8.02539 30.4407 8.02539 30.1218C8.02539 29.8028 8.28392 29.5443 8.60286 29.5443C8.9218 29.5443 9.18033 29.8028 9.18033 30.1218C9.18033 30.4407 8.9218 30.6992 8.60286 30.6992Z" fill="white"/>
<path d="M9.59114 29.544C9.2722 29.544 9.01367 29.2855 9.01367 28.9665C9.01367 28.6475 9.2722 28.3889 9.59114 28.3889C9.91009 28.3889 10.1686 28.6475 10.1686 28.9665C10.1686 29.2855 9.91009 29.544 9.59114 29.544Z" fill="white"/>
<path fill-rule="evenodd" clip-rule="evenodd" d="M13.1335 23.9639C13.2386 23.8545 13.3864 23.7863 13.5501 23.7863C13.8691 23.7863 14.1277 24.045 14.1277 24.3639C14.1277 24.5335 14.0544 24.6863 13.9379 24.7918L11.0224 28.1973C10.9719 28.2568 10.9099 28.3058 10.8402 28.3411C10.7704 28.3765 10.6943 28.3975 10.6163 28.403C10.5383 28.4084 10.46 28.3982 10.386 28.3729C10.312 28.3476 10.2438 28.3078 10.1854 28.2558C10.1238 28.2067 10.0729 28.1453 10.0361 28.0754C9.99946 28.0056 9.97758 27.929 9.97206 27.8503C9.96664 27.7716 9.97749 27.6925 10.0042 27.6183C10.0308 27.544 10.0726 27.476 10.1269 27.4189L13.1316 23.9622L13.1335 23.9639Z" fill="white"/>
<path d="M5.59124 29.796C5.2723 29.796 5.01367 29.5375 5.01367 29.2185C5.01367 28.8996 5.2723 28.641 5.59124 28.641C5.91019 28.641 6.16872 28.8996 6.16872 29.2185C6.16872 29.5375 5.91019 29.796 5.59124 29.796Z" fill="white"/>
<path d="M6.76117 28.8335C6.44222 28.8335 6.18359 28.575 6.18359 28.256C6.18359 27.9371 6.44222 27.6785 6.76117 27.6785C7.0801 27.6785 7.33864 27.9371 7.33864 28.256C7.33864 28.575 7.0801 28.8335 6.76117 28.8335Z" fill="white"/>
<path d="M7.93498 27.8705C7.61605 27.8705 7.35742 27.612 7.35742 27.2931C7.35742 26.9742 7.61605 26.7156 7.93498 26.7156C8.25392 26.7156 8.51247 26.9742 8.51247 27.2931C8.51247 27.612 8.25392 27.8705 7.93498 27.8705Z" fill="white"/>
<path fill-rule="evenodd" clip-rule="evenodd" d="M13.0293 23.8672L13.0301 23.8683L9.47322 26.808C9.41484 26.8614 9.34607 26.9021 9.27114 26.9273C9.19621 26.9526 9.11686 26.962 9.03807 26.9549C8.95936 26.9478 8.88297 26.9244 8.81373 26.8861C8.7446 26.8478 8.6841 26.7957 8.6362 26.7327C8.58563 26.6728 8.54757 26.6033 8.52431 26.5284C8.50113 26.4535 8.49314 26.3746 8.50096 26.2966C8.50878 26.2185 8.53221 26.1428 8.56982 26.074C8.60742 26.0052 8.65845 25.9446 8.71996 25.8958L12.2371 23.0267C12.3408 22.9272 12.4817 22.8661 12.6368 22.8661C12.9557 22.8661 13.2142 23.1247 13.2142 23.4436C13.2142 23.6109 13.1431 23.7617 13.0293 23.8672Z" fill="white"/>
<path d="M2.62825 28.1636C2.30931 28.1636 2.05078 27.9051 2.05078 27.5863C2.05078 27.2674 2.30931 27.0087 2.62825 27.0087C2.9472 27.0087 3.20574 27.2674 3.20574 27.5863C3.20574 27.9051 2.9472 28.1636 2.62825 28.1636Z" fill="white"/>
<path d="M3.95052 27.4192C3.63158 27.4192 3.37305 27.1607 3.37305 26.8418C3.37305 26.5228 3.63158 26.2643 3.95052 26.2643C4.26946 26.2643 4.52809 26.5228 4.52809 26.8418C4.52809 27.1607 4.26946 27.4192 3.95052 27.4192Z" fill="white"/>
<path d="M5.27288 26.6743C4.95394 26.6743 4.69531 26.4158 4.69531 26.0969C4.69531 25.7779 4.95394 25.5194 5.27288 25.5194C5.59183 25.5194 5.85036 25.7779 5.85036 26.0969C5.85036 26.4158 5.59183 26.6743 5.27288 26.6743Z" fill="white"/>
<path d="M6.59514 25.9285C6.2762 25.9285 6.01758 25.6699 6.01758 25.3509C6.01758 25.0319 6.2762 24.7734 6.59514 24.7734C6.91408 24.7734 7.17261 25.0319 7.17261 25.3509C7.17261 25.6699 6.91408 25.9285 6.59514 25.9285Z" fill="white"/>
<path fill-rule="evenodd" clip-rule="evenodd" d="M12.1689 22.8796L8.20205 25.134C8.06883 25.2094 7.91114 25.2288 7.76367 25.188C7.61611 25.1472 7.49089 25.0495 7.41532 24.9164C7.33955 24.7819 7.31988 24.6229 7.36061 24.4741C7.40134 24.3251 7.49925 24.1984 7.63293 24.1212L11.5436 21.9124C11.6406 21.8384 11.7619 21.7946 11.8933 21.7946C12.2123 21.7946 12.4708 22.0531 12.4708 22.372C12.4708 22.572 12.3691 22.7483 12.2147 22.8519L12.2154 22.8532L12.1876 22.869C12.1814 22.8727 12.1752 22.8762 12.1689 22.8796Z" fill="white"/>
<path d="M2.74545 24.7904C2.42651 24.7904 2.16797 24.5319 2.16797 24.2129C2.16797 23.894 2.42651 23.6355 2.74545 23.6355C3.0644 23.6355 3.32292 23.894 3.32292 24.2129C3.32292 24.5319 3.0644 24.7904 2.74545 24.7904Z" fill="white"/>
<path d="M4.18295 24.2882C3.86401 24.2882 3.60547 24.0295 3.60547 23.7105C3.60547 23.3915 3.86401 23.1329 4.18295 23.1329C4.5019 23.1329 4.76044 23.3915 4.76044 23.7105C4.76044 24.0295 4.5019 24.2882 4.18295 24.2882Z" fill="white"/>
<path d="M5.61655 23.7862C5.2976 23.7862 5.03906 23.5276 5.03906 23.2086C5.03906 22.8897 5.2976 22.631 5.61655 22.631C5.93549 22.631 6.19402 22.8897 6.19402 23.2086C6.19402 23.5276 5.93549 23.7862 5.61655 23.7862Z" fill="white"/>
<path fill-rule="evenodd" clip-rule="evenodd" d="M11.481 21.7544L7.24017 23.251C7.09683 23.2915 6.94339 23.275 6.81191 23.2048C6.68044 23.1349 6.58115 23.0167 6.53471 22.8753C6.4882 22.7338 6.49822 22.5798 6.56266 22.4456C6.62702 22.3112 6.74084 22.207 6.88022 22.1546L11.094 20.6739C11.1711 20.6359 11.2579 20.6145 11.3497 20.6145C11.6686 20.6145 11.9272 20.873 11.9272 21.1919C11.9272 21.4658 11.7367 21.6951 11.481 21.7544Z" fill="white"/>
<path d="M3.52278 21.7447C3.20384 21.7447 2.94531 21.4862 2.94531 21.1673C2.94531 20.8483 3.20384 20.5898 3.52278 20.5898C3.84173 20.5898 4.10026 20.8483 4.10026 21.1673C4.10026 21.4862 3.84173 21.7447 3.52278 21.7447Z" fill="white"/>
<path d="M5.02093 21.5012C4.70199 21.5012 4.44336 21.2426 4.44336 20.9236C4.44336 20.6047 4.70199 20.3462 5.02093 20.3462C5.33986 20.3462 5.5984 20.6047 5.5984 20.9236C5.5984 21.2426 5.33986 21.5012 5.02093 21.5012Z" fill="white"/>
<path fill-rule="evenodd" clip-rule="evenodd" d="M6.3793 21.2539C6.45653 21.2687 6.53596 21.2674 6.61273 21.2504L11.1597 20.4992L11.1592 20.4961C11.4085 20.4321 11.5927 20.2058 11.5927 19.9366C11.5927 19.6177 11.3341 19.3592 11.0152 19.3592C11.0006 19.3592 10.986 19.3597 10.9717 19.3607L10.9713 19.3589L10.9417 19.3637C10.9271 19.3656 10.9127 19.368 10.8984 19.3709L6.42867 20.1123C6.35042 20.1202 6.27457 20.1441 6.20599 20.1825C6.13731 20.2209 6.07719 20.2729 6.02928 20.3354C5.98148 20.3977 5.9469 20.4694 5.92769 20.5455C5.90847 20.6218 5.90497 20.7012 5.91758 20.7789C5.93017 20.8566 5.9584 20.9307 6.00069 20.9971C6.04298 21.0634 6.09842 21.1205 6.16352 21.1645C6.22861 21.2087 6.30197 21.2391 6.3793 21.2539Z" fill="white"/>
<path d="M1.79046 19.1161C1.47152 19.1161 1.21289 18.8576 1.21289 18.5386C1.21289 18.2196 1.47152 17.961 1.79046 17.961C2.1094 17.961 2.36794 18.2196 2.36794 18.5386C2.36794 18.8576 2.1094 19.1161 1.79046 19.1161Z" fill="white"/>
<path d="M3.3138 19.1329C2.99486 19.1329 2.73633 18.8744 2.73633 18.5554C2.73633 18.2365 2.99486 17.978 3.3138 17.978C3.63274 17.978 3.89136 18.2365 3.89136 18.5554C3.89136 18.8744 3.63274 19.1329 3.3138 19.1329Z" fill="white"/>
<path d="M4.82944 19.1505C4.51049 19.1505 4.25195 18.8919 4.25195 18.5729C4.25195 18.254 4.51049 17.9955 4.82944 17.9955C5.14837 17.9955 5.40691 18.254 5.40691 18.5729C5.40691 18.8919 5.14837 19.1505 4.82944 19.1505Z" fill="white"/>
<path fill-rule="evenodd" clip-rule="evenodd" d="M5.93674 18.997C6.04504 19.1053 6.19197 19.1663 6.34514 19.1663L10.8791 19.2157C10.8882 19.2162 10.8973 19.2164 10.9065 19.2164C10.9114 19.2164 10.9163 19.2164 10.9211 19.2162L10.94 19.2164V19.2154C11.2433 19.1981 11.484 18.9465 11.484 18.6389C11.484 18.3313 11.2433 18.0799 10.94 18.0625V18.0615L6.34514 18.0112C6.19197 18.0112 6.04504 18.072 5.93674 18.1803C5.82843 18.2887 5.76758 18.4356 5.76758 18.5888C5.76758 18.7419 5.82843 18.8887 5.93674 18.997Z" fill="white"/>
<path d="M0.577568 15.9606C0.258629 15.9606 0 15.7021 0 15.3832C0 15.0643 0.258629 14.8057 0.577568 14.8057C0.896508 14.8057 1.15504 15.0643 1.15504 15.3832C1.15504 15.7021 0.896508 15.9606 0.577568 15.9606Z" fill="white"/>
<path d="M2.06772 16.2369C1.74878 16.2369 1.49023 15.9783 1.49023 15.6594C1.49023 15.3405 1.74878 15.082 2.06772 15.082C2.38665 15.082 2.64519 15.3405 2.64519 15.6594C2.64519 15.9783 2.38665 16.2369 2.06772 16.2369Z" fill="white"/>
<path d="M3.55795 16.5219C3.23901 16.5219 2.98047 16.2634 2.98047 15.9443C2.98047 15.6254 3.23901 15.3668 3.55795 15.3668C3.87688 15.3668 4.13551 15.6254 4.13551 15.9443C4.13551 16.2634 3.87688 16.5219 3.55795 16.5219Z" fill="white"/>
<path d="M5.05403 16.7984C4.73509 16.7984 4.47656 16.5399 4.47656 16.2209C4.47656 15.902 4.73509 15.6435 5.05403 15.6435C5.37298 15.6435 5.63151 15.902 5.63151 16.2209C5.63151 16.5399 5.37298 16.7984 5.05403 16.7984Z" fill="white"/>
<path fill-rule="evenodd" clip-rule="evenodd" d="M6.06212 16.8299C6.14928 16.9577 6.28359 17.0459 6.43567 17.0747L10.8921 17.9138C10.907 17.9172 10.9222 17.92 10.9376 17.9223L10.9593 17.9264L10.9596 17.925C10.9802 17.9274 11.001 17.9284 11.0222 17.9284C11.3411 17.9284 11.5998 17.6699 11.5998 17.3509C11.5998 17.0899 11.4267 16.8694 11.1892 16.7978L11.1895 16.7964L11.1731 16.7933C11.1459 16.7858 11.1178 16.7804 11.0891 16.7771L6.65329 15.928C6.50122 15.8991 6.3439 15.9319 6.21602 16.019C6.08804 16.1061 6.00005 16.2405 5.97118 16.3926C5.94231 16.5446 5.97505 16.702 6.06212 16.8299Z" fill="white"/>
<path d="M47.2363 9.70715H54.6046C56.6103 9.70715 58.1061 10.1066 59.0919 10.9055C60.0778 11.6873 60.5707 12.8176 60.5707 14.2965C60.5707 15.2313 60.2902 16.0471 59.7294 16.744C59.1684 17.4239 58.378 17.8488 57.3583 18.0188V18.0443C58.514 18.2143 59.4064 18.6562 60.0352 19.3701C60.6812 20.067 61.0041 20.9168 61.0041 21.9196C61.0041 23.3815 60.4772 24.5203 59.4234 25.3361C58.3695 26.135 56.8483 26.5344 54.8596 26.5344H47.2363V9.70715ZM54.1202 16.7696C55.9899 16.7696 56.9247 16.0471 56.9247 14.6023C56.9247 13.1576 55.9899 12.4352 54.1202 12.4352H50.6528V16.7696H54.1202ZM54.5536 23.8829C55.4886 23.8829 56.1854 23.6959 56.6443 23.3219C57.1203 22.931 57.3583 22.3786 57.3583 21.6648C57.3583 20.9508 57.1203 20.4069 56.6443 20.033C56.1854 19.6591 55.4886 19.4721 54.5536 19.4721H50.6528V23.8829H54.5536Z" fill="white"/>
<path d="M71.2876 13.5315C71.8825 13.5315 72.3414 13.625 72.6643 13.8119L72.2309 16.8714C71.84 16.6166 71.3046 16.489 70.6246 16.489C69.7918 16.489 69.0695 16.795 68.4575 17.4069C67.8626 18.0018 67.5651 18.8431 67.5651 19.931V26.5344H64.0723V13.7865H67.1062L67.3357 16.285C68.0325 14.4493 69.3499 13.5315 71.2876 13.5315Z" fill="white"/>
<path d="M76.6515 11.9508C75.2067 11.9508 74.4844 11.3304 74.4844 10.0896C74.4844 8.83179 75.2067 8.20288 76.6515 8.20288C78.0964 8.20288 78.8187 8.83179 78.8187 10.0896C78.8187 11.3304 78.0964 11.9508 76.6515 11.9508ZM78.3852 26.5344H74.8923V13.7865H78.3852V26.5344Z" fill="white"/>
<path d="M89.9015 24.1379C91.2952 24.1379 92.366 24.4438 93.1139 25.0557C93.8788 25.6676 94.2613 26.543 94.2613 27.6818C94.2613 29.0415 93.6323 30.1039 92.3746 30.8687C91.1168 31.6336 89.4595 32.016 87.4028 32.016C85.2782 32.016 83.6975 31.7356 82.6606 31.1747C81.6408 30.6138 81.1309 29.8489 81.1309 28.8801C81.1309 28.3022 81.3264 27.8008 81.7172 27.3758C82.1082 26.9508 82.6862 26.645 83.451 26.458C82.8731 26.22 82.4142 25.8885 82.0742 25.4637C81.7342 25.0217 81.5643 24.5033 81.5643 23.9084C81.5643 23.2965 81.7428 22.7696 82.0998 22.3276C82.4566 21.8857 82.9496 21.5543 83.5785 21.3333C82.9326 20.9593 82.4396 20.4835 82.0998 19.9055C81.7598 19.3106 81.5898 18.6308 81.5898 17.8658C81.5898 16.5231 82.1082 15.4693 83.145 14.7043C84.1989 13.9225 85.6267 13.5316 87.4284 13.5316C88.3462 13.5316 89.2045 13.642 90.0035 13.863C90.2245 12.8602 90.6493 12.0783 91.2782 11.5174C91.9242 10.9395 92.791 10.6845 93.8788 10.7525L94.3377 13.2512C94.2187 13.2342 94.0403 13.2256 93.8023 13.2256C93.1734 13.2256 92.6465 13.3362 92.2216 13.557C91.8136 13.778 91.5246 14.0755 91.3547 14.4494C91.9836 14.8233 92.4596 15.2993 92.7825 15.8772C93.1224 16.4551 93.2924 17.118 93.2924 17.8658C93.2924 19.1917 92.7655 20.2455 91.7116 21.0273C90.6748 21.7922 89.2471 22.1746 87.4284 22.1746C86.5954 22.1746 85.8306 22.0982 85.1337 21.9452C84.4709 22.1152 84.1393 22.4976 84.1393 23.0926C84.1393 23.4324 84.2669 23.6959 84.5219 23.8829C84.7767 24.0529 85.1337 24.1379 85.5927 24.1379H89.9015ZM87.4284 15.7243C86.7484 15.7243 86.1876 15.9197 85.7457 16.3106C85.3207 16.7016 85.1083 17.2114 85.1083 17.8404C85.1083 18.4862 85.3207 19.0047 85.7457 19.3956C86.1876 19.7865 86.7484 19.9821 87.4284 19.9821C88.1252 19.9821 88.6861 19.7865 89.1111 19.3956C89.5531 19.0047 89.7739 18.4862 89.7739 17.8404C89.7739 17.2114 89.5531 16.7016 89.1111 16.3106C88.6861 15.9197 88.1252 15.7243 87.4284 15.7243ZM87.6834 29.6195C88.8731 29.6195 89.7909 29.4665 90.4369 29.1605C91.0828 28.8716 91.4057 28.4976 91.4057 28.0388C91.4057 27.6818 91.2528 27.4098 90.9468 27.2228C90.6579 27.0528 90.1734 26.9678 89.4935 26.9678H86.0261C84.6153 26.9678 83.9099 27.3504 83.9099 28.1152C83.9099 28.5911 84.2243 28.9565 84.8533 29.2115C85.4822 29.4835 86.4255 29.6195 87.6834 29.6195Z" fill="white"/>
<path d="M104.08 13.5315C105.457 13.5315 106.562 13.9309 107.395 14.7299C108.245 15.5287 108.669 16.676 108.669 18.1717V26.5344H105.176V19.1917C105.176 17.2539 104.42 16.285 102.907 16.285C102.092 16.285 101.395 16.574 100.817 17.152C100.256 17.7298 99.9753 18.6137 99.9753 19.8035V26.5344H96.4824V8.20288H99.9753V15.9536C100.366 15.1378 100.91 14.5343 101.607 14.1435C102.321 13.7355 103.145 13.5315 104.08 13.5315Z" fill="white"/>
<path d="M120.977 25.7441C120.569 26.067 120.051 26.322 119.422 26.509C118.81 26.696 118.164 26.7894 117.484 26.7894C114.646 26.7894 113.226 25.5061 113.226 22.9396V16.3871H110.906V13.7865H113.226V10.8545L116.719 9.88565V13.7865H120.85V16.3871H116.719V22.3786C116.719 23.5514 117.306 24.1379 118.479 24.1379C119.226 24.1379 119.881 23.8999 120.442 23.424L120.977 25.7441Z" fill="white"/>
<path d="M138.038 9.70715V26.5344H134.52V19.4465H127.101V26.5344H123.582V9.70715H127.101V16.6166H134.52V9.70715H138.038Z" fill="white"/>
<path d="M143.897 11.9508C142.452 11.9508 141.73 11.3304 141.73 10.0896C141.73 8.83179 142.452 8.20288 143.897 8.20288C145.342 8.20288 146.064 8.83179 146.064 10.0896C146.064 11.3304 145.342 11.9508 143.897 11.9508ZM145.631 26.5344H142.138V13.7865H145.631V26.5344Z" fill="white"/>
<path d="M156.611 13.5315C157.207 13.5315 157.665 13.625 157.988 13.8119L157.555 16.8714C157.164 16.6166 156.629 16.489 155.949 16.489C155.116 16.489 154.393 16.795 153.782 17.4069C153.187 18.0018 152.889 18.8431 152.889 19.931V26.5344H149.396V13.7865H152.43L152.66 16.285C153.357 14.4493 154.674 13.5315 156.611 13.5315Z" fill="white"/>
<path d="M171.875 20.1095C171.875 20.5854 171.841 21.0442 171.773 21.4862H162.747C163.105 23.2879 164.166 24.1889 165.934 24.1889C166.666 24.1889 167.269 24.0529 167.745 23.7809C168.221 23.5089 168.552 23.1179 168.738 22.608L171.594 23.6533C171.186 24.6732 170.499 25.4551 169.529 25.999C168.577 26.526 167.38 26.7894 165.934 26.7894C163.826 26.7894 162.194 26.2114 161.039 25.0556C159.883 23.8829 159.305 22.2511 159.305 20.1604C159.305 18.0698 159.866 16.4466 160.988 15.2907C162.11 14.1179 163.69 13.5315 165.73 13.5315C167.702 13.5315 169.214 14.1009 170.268 15.2397C171.34 16.3786 171.875 18.0018 171.875 20.1095ZM165.705 16.1066C164.855 16.1066 164.175 16.353 163.665 16.846C163.173 17.3389 162.858 18.0698 162.722 19.0387H168.663C168.527 18.0868 168.203 17.3644 167.693 16.8714C167.183 16.3616 166.521 16.1066 165.705 16.1066Z" fill="white"/>
</g>
<defs>
<clipPath id="clip0_944_6443">
<rect width="172" height="47.9736" fill="white"/>
</clipPath>
</defs>
</svg>
